<svg viewBox="0 0 256 256" width="52" height="52" xmlns="http://www.w3.org/2000/svg">
 <g>
  <path id="svg_5" d="m120,139.19995" opacity="NaN" stroke-width="15" stroke="#191919" fill="none"/>
  <path stroke="#ededed" id="svg_6" d="m34.51749,119.00099c1.9945,-86.22357 3.54687,-87.37752 90.74992,-87.52218l6.85386,0c88.21808,0.38953 88.88229,-0.19726 90.37817,83.53318l0,6.48211c0.49863,94.70021 1.95579,96.73343 -88.25679,98.72793l-12.46562,0c-83.73044,-0.49863 -85.26503,-4.52634 -87.25954,-87.25954l0,-13.9615z" opacity="undefined" stroke-width="18" fill="none"/>
  <path stroke="#ededed" id="svg_8" d="m129.67286,176.08872c-25.36503,0 -45.91071,-20.54567 -45.91071,-45.91071c0,-25.36503 20.54567,-45.91071 45.91071,-45.91071c25.36503,0 45.91071,20.54567 45.91071,45.91071c0,25.36503 -20.54567,45.91071 -45.91071,45.91071z" opacity="undefined" stroke-width="18" fill="none"/>
  <ellipse stroke="#ededed" ry="10.78065" rx="10.78065" id="svg_15" cy="70.51269" cx="184.87723" stroke-width="3" fill="#ededed"/>
 </g>
</svg>