<svg viewBox="0 0 256 256" width="52" height="52" xmlns="http://www.w3.org/2000/svg">
 <g id="Layer_1">
  <path id="svg_7" d="m72.52176,134.15557c-10.40384,4.50469 -29.72627,-11.7543 -40.05181,-17.64109c-10.32553,-5.8868 18.01627,-11.84551 53.18732,-26.1721c35.17104,-14.3266 82.46304,-32.84077 86.87392,-34.40345c4.41088,-1.56268 9.12186,-5.79316 8.71821,0.70803c-0.20183,3.2506 -3.99025,23.76459 -13.7452,84.61376c-9.75496,60.84917 -9.9425,74.00762 -19.12378,68.37239c-9.18129,-5.63523 -23.19375,-15.43582 -31.78676,-23.77901c-8.59302,-8.34319 -21.06953,-18.30451 -25.77905,-26.00045c-4.70952,-7.69595 35.29175,-41.00957 41.25604,-46.7742c5.96429,-5.76464 4.96102,-8.60462 2.5001,-9.3141c-2.46092,-0.70949 -5.10642,-0.11235 -15.63082,5.73422c-10.5244,5.84657 -36.01434,20.15131 -46.41817,24.656z" opacity="undefined" stroke-width="5" stroke="#ededed" fill="#ededed"/>
 </g>
</svg>