<svg width="111" height="26" viewBox="0 0 111 26" fill="none" xmlns="http://www.w3.org/2000/svg">
<path d="M17.3765 25V22.624H3.84045V14.488H16.2245V12.508H3.84045V3.97598H17.3765V1.31198H0.564453V25H17.3765Z" fill="black"/>
<path d="M19.376 25L28.084 0.8H31L40 25H36.652L30.712 8C30.64 7.808 30.52 7.46 30.352 6.956C30.184 6.452 30.016 5.936 29.848 5.408C29.704 4.856 29.584 4.436 29.488 4.148C29.368 4.628 29.236 5.12 29.092 5.624C28.972 6.104 28.84 6.548 28.696 6.956C28.576 7.364 28.468 7.712 28.372 8L22.652 25H19.376Z" fill="black"/>
<path d="M59.1533 25V22.624H45.6173V14.488H58.0013V12.508H45.6173V3.97598H59.1533V1.31198H42.3413V25H59.1533Z" fill="black"/>
<path d="M61.2087 12.76C61.2087 19.708 66.7527 25.324 74.6727 25.324C77.7327 25.324 80.7927 24.064 83.0967 22.048V25H85.5447V12.292H71.9367V14.344H82.4487V18.88C80.5767 21.04 77.4087 22.264 74.6727 22.264C69.0927 22.264 64.7727 18.268 64.7727 12.76C64.7727 7.53998 69.3447 3.29198 74.9607 3.29198C78.0567 3.29198 81.0447 4.69598 82.8807 6.92798L85.9767 5.12798C83.4567 2.17598 79.4607 0.195984 75.0327 0.195984C67.2567 0.195984 61.2087 5.81198 61.2087 12.76Z" fill="black"/>
<path d="M97.8463 17.908V25H101.122V17.872L110.59 1.45598H107.026L99.3943 15.172L91.2583 1.45598H87.6583L97.8463 17.908Z" fill="black"/>
</svg>
